<svg width="40" height="33" viewBox="0 0 40 33" fill="none" xmlns="http://www.w3.org/2000/svg">
<path d="M36.2578 0.386719H3.74219C1.9375 0.386719 0.46875 1.59844 0.46875 3.0873V29.9062C0.46875 31.4016 1.9375 32.6133 3.74219 32.6133H36.25C38.0547 32.6133 39.5234 31.4016 39.5234 29.9127V3.0873C39.5312 1.59844 38.0625 0.386719 36.2578 0.386719ZM37.9687 29.9127C37.9687 30.6926 37.2031 31.3242 36.2578 31.3242H3.74219C2.79687 31.3242 2.03125 30.6926 2.03125 29.9127V3.0873C2.03125 2.30742 2.79687 1.67578 3.74219 1.67578H36.25C37.1953 1.67578 37.9609 2.30742 37.9609 3.0873V29.9127H37.9687Z" fill="#94D7D4"/>
<path d="M13.4219 13.1807H7.5625C7.13281 13.1807 6.78125 13.4708 6.78125 13.8252V27.4957C6.78125 27.8502 7.13281 28.1403 7.5625 28.1403H13.4141C13.8437 28.1403 14.1953 27.8502 14.1953 27.4957V13.8252C14.2031 13.4643 13.8516 13.1807 13.4219 13.1807ZM12.6406 26.8512H8.35156V14.4698H12.6406V26.8512ZM32 15.8426C31.2969 15.5075 30.4141 15.2754 29.2891 15.1401C27.9297 14.9725 26.5703 15.037 25.2578 15.3334C24.9531 15.4043 24.6484 15.4817 24.3359 15.5719V13.8252C24.3359 13.4708 23.9844 13.1807 23.5547 13.1807H17.7031C17.2734 13.1807 16.9219 13.4708 16.9219 13.8252V27.4957C16.9219 27.8502 17.2734 28.1403 17.7031 28.1403H23.5547C23.9844 28.1403 24.3359 27.8502 24.3359 27.4957V21.9979C24.3359 21.3791 24.9453 20.8764 25.6953 20.8764C26.4453 20.8764 27.0547 21.3791 27.0547 21.9979V27.6698C27.0547 28.0243 27.4062 28.3143 27.8359 28.3143H33.6875C34.1172 28.3143 34.4687 28.0243 34.4687 27.6698V19.5036C34.4766 18.0018 33.5078 16.5645 32 15.8426ZM32.9141 27.0252H28.625V21.9979C28.625 20.6702 27.3125 19.5873 25.7031 19.5873C24.0937 19.5873 22.7812 20.6702 22.7812 21.9979V26.8512H18.4922V14.4698H22.7812V16.5387C22.7812 16.7579 22.9141 16.9641 23.1406 17.0801C23.3672 17.1961 23.6484 17.2155 23.8906 17.1188C24.4922 16.8868 25.0937 16.7063 25.6719 16.5709C26.7734 16.3196 27.9141 16.268 29.0547 16.4098C29.9766 16.5258 30.6797 16.6999 31.2109 16.9512C32.2344 17.4411 32.9141 18.4659 32.9141 19.4971V27.0252V27.0252ZM10.4922 4.68579C8.44531 4.68579 6.78125 6.05864 6.78125 7.74731C6.78125 9.43599 8.44531 10.8088 10.4922 10.8088C12.5391 10.8088 14.2031 9.43599 14.2031 7.74731C14.2031 6.05864 12.5391 4.68579 10.4922 4.68579ZM10.4922 9.51333C9.3125 9.51333 8.34375 8.72056 8.34375 7.74087C8.34375 6.76118 9.30469 5.96841 10.4922 5.96841C11.6797 5.96841 12.6406 6.76118 12.6406 7.74087C12.6406 8.72056 11.6719 9.51333 10.4922 9.51333Z" fill="#94D7D4"/>
</svg>
