<svg width="39" height="32" viewBox="0 0 39 32" fill="none" xmlns="http://www.w3.org/2000/svg">
<path fill-rule="evenodd" clip-rule="evenodd" d="M6.5 6.66667C5.60995 6.66667 4.875 7.26971 4.875 8V24C4.875 24.7303 5.60995 25.3333 6.5 25.3333H32.5C33.39 25.3333 34.125 24.7303 34.125 24V8C34.125 7.26971 33.39 6.66667 32.5 6.66667H6.5ZM1.625 8C1.625 5.79696 3.81505 4 6.5 4H32.5C35.185 4 37.375 5.79696 37.375 8V24C37.375 26.2031 35.185 28 32.5 28H6.5C3.81505 28 1.625 26.2031 1.625 24V8Z" fill="#94D7D4"/>
<path fill-rule="evenodd" clip-rule="evenodd" d="M1.91865 7.23533C2.4333 6.63207 3.44654 6.48536 4.18177 6.90764L19.4999 15.7058L34.818 6.90764C35.5533 6.48536 36.5665 6.63207 37.0811 7.23533C37.5957 7.8386 37.417 8.66997 36.6818 9.09227L20.4318 18.4257C19.8722 18.747 19.1276 18.747 18.568 18.4257L2.31802 9.09227C1.58279 8.66997 1.40398 7.8386 1.91865 7.23533Z" fill="#94D7D4"/>
</svg>
