<svg width="40" height="33" viewBox="0 0 40 33" fill="none" xmlns="http://www.w3.org/2000/svg">
<path d="M27.6666 19.25C27.3333 19.1125 25.1666 18.2875 24.8333 18.15C24.4999 18.0125 24.1666 18.0125 23.8333 18.2875C23.4999 18.5625 22.8333 19.3875 22.4999 19.6625C22.3333 19.9375 21.9999 19.9375 21.6666 19.8C20.4999 19.3875 19.3333 18.8375 18.3333 18.15C17.4999 17.4625 16.6666 16.6375 15.9999 15.8125C15.8333 15.5375 15.9999 15.2625 16.1666 15.125C16.3333 14.9875 16.4999 14.7125 16.8333 14.575C16.9999 14.4375 17.1666 14.1625 17.1666 14.025C17.3333 13.8875 17.3333 13.6125 17.1666 13.475C16.9999 13.3375 16.1666 11.6875 15.8333 11C15.6666 10.0375 15.3333 10.0375 14.9999 10.0375C14.8333 10.0375 14.4999 10.0375 14.1666 10.0375C13.8333 10.0375 13.3333 10.3125 13.1666 10.45C12.1666 11.275 11.6666 12.2375 11.6666 13.3375C11.8333 14.575 12.3333 15.8125 13.3333 16.9125C15.1666 19.1125 17.4999 20.9 20.3333 22C21.1666 22.275 21.8333 22.55 22.6666 22.6875C23.4999 22.9625 24.3333 22.9625 25.3333 22.825C26.4999 22.6875 27.4999 22 28.1666 21.175C28.4999 20.625 28.4999 20.075 28.3333 19.525C28.3333 19.525 27.9999 19.3875 27.6666 19.25ZM31.8333 6.73746C25.3333 1.37495 14.8333 1.37495 8.33325 6.73746C2.99992 11.1375 1.99992 17.875 5.66659 23.2375L3.33325 30.25L12.1666 28.325C14.6666 29.425 17.3333 29.975 19.9999 29.975C29.1666 29.975 36.4999 23.925 36.4999 16.3625C36.6666 12.7874 34.8333 9.34996 31.8333 6.73746ZM27.3333 25.9875C25.1666 27.0875 22.6666 27.775 19.9999 27.775C17.4999 27.775 15.1666 27.225 12.9999 26.2625L12.4999 25.9875L7.33325 27.0875L8.66658 22.9625L8.33325 22.55C4.33325 17.05 6.33325 10.175 12.8333 6.73746C19.3333 3.29996 27.6666 5.08746 31.6666 10.3125C35.6666 15.675 33.8333 22.6875 27.3333 25.9875Z" fill="#94D7D4"/>
</svg>
