<svg width="188" height="99" viewBox="0 0 188 99" fill="none" xmlns="http://www.w3.org/2000/svg">
<path d="M41.9119 4.01599V4.97599C40.8879 5.00799 40.1199 5.13599 39.6079 5.35999C39.0959 5.55199 38.7439 5.93599 38.5519 6.51199C38.3919 7.05599 38.3119 7.91999 38.3119 9.10399V32.912C38.3119 34.064 38.3919 34.928 38.5519 35.504C38.7439 36.08 39.0959 36.464 39.6079 36.656C40.1199 36.848 40.8879 36.976 41.9119 37.04V38C41.0159 37.936 39.8799 37.904 38.5039 37.904C37.1599 37.872 35.7839 37.856 34.3759 37.856C32.8399 37.856 31.3999 37.872 30.0559 37.904C28.7119 37.904 27.6239 37.936 26.7919 38V37.04C27.8799 36.976 28.6959 36.848 29.2399 36.656C29.8159 36.464 30.1999 36.08 30.3919 35.504C30.5839 34.928 30.6799 34.064 30.6799 32.912V6.94399H31.0159L19.1119 38.048H18.3439L5.38393 7.13599V30.128C5.38393 31.888 5.47993 33.248 5.67193 34.208C5.86393 35.136 6.27993 35.808 6.91993 36.224C7.59193 36.608 8.63193 36.88 10.0399 37.04V38C9.43193 37.936 8.63193 37.904 7.63993 37.904C6.64793 37.872 5.71993 37.856 4.85593 37.856C4.11993 37.856 3.36793 37.872 2.59993 37.904C1.83193 37.904 1.19193 37.936 0.679932 38V37.04C1.70393 36.88 2.47193 36.608 2.98393 36.224C3.49593 35.84 3.83193 35.216 3.99193 34.352C4.18393 33.456 4.27993 32.24 4.27993 30.704V9.10399C4.27993 7.91999 4.18393 7.05599 3.99193 6.51199C3.83193 5.93599 3.47993 5.55199 2.93593 5.35999C2.42393 5.13599 1.67193 5.00799 0.679932 4.97599V4.01599C1.19193 4.04799 1.83193 4.07999 2.59993 4.11199C3.36793 4.14399 4.11993 4.15999 4.85593 4.15999C6.23193 4.15999 7.57593 4.14399 8.88793 4.11199C10.2319 4.07999 11.4159 4.04799 12.4399 4.01599L22.5199 28.352L21.3199 29.456L30.9679 4.15999C31.5119 4.15999 32.0719 4.15999 32.6479 4.15999C33.2239 4.15999 33.7999 4.15999 34.3759 4.15999C35.7839 4.15999 37.1599 4.14399 38.5039 4.11199C39.8799 4.07999 41.0159 4.04799 41.9119 4.01599Z" fill="#000707"/>
<path d="M50.9791 38.336C49.5391 38.336 48.3391 38.064 47.3791 37.52C46.4191 36.976 45.7151 36.256 45.2671 35.36C44.8191 34.432 44.5951 33.424 44.5951 32.336C44.5951 30.96 44.8991 29.84 45.5071 28.976C46.1471 28.112 46.9631 27.408 47.9551 26.864C48.9471 26.32 49.9871 25.872 51.0751 25.52C52.1951 25.168 53.2511 24.832 54.2431 24.512C55.2671 24.16 56.0831 23.76 56.6911 23.312C57.3311 22.832 57.6511 22.224 57.6511 21.488V17.744C57.6511 16.912 57.5071 16.176 57.2191 15.536C56.9631 14.864 56.5471 14.352 55.9711 14C55.4271 13.648 54.7071 13.472 53.8111 13.472C53.1711 13.472 52.5311 13.568 51.8911 13.76C51.2511 13.92 50.7231 14.208 50.3071 14.624C51.2031 14.944 51.8911 15.44 52.3711 16.112C52.8831 16.752 53.1391 17.488 53.1391 18.32C53.1391 19.408 52.7551 20.272 51.9871 20.912C51.2511 21.552 50.3711 21.872 49.3471 21.872C48.1951 21.872 47.3151 21.52 46.7071 20.816C46.1311 20.08 45.8431 19.2 45.8431 18.176C45.8431 17.248 46.0671 16.48 46.5151 15.872C46.9951 15.264 47.6511 14.688 48.4831 14.144C49.3791 13.632 50.4511 13.232 51.6991 12.944C52.9791 12.656 54.3551 12.512 55.8271 12.512C57.2991 12.512 58.6271 12.672 59.8111 12.992C60.9951 13.28 61.9871 13.824 62.7871 14.624C63.5231 15.36 64.0031 16.272 64.2271 17.36C64.4511 18.416 64.5631 19.76 64.5631 21.392V34.448C64.5631 35.248 64.6431 35.808 64.8031 36.128C64.9631 36.416 65.2351 36.56 65.6191 36.56C65.9071 36.56 66.1791 36.48 66.4351 36.32C66.7231 36.16 67.0271 35.968 67.3471 35.744L67.8271 36.56C67.1551 37.136 66.3711 37.584 65.4751 37.904C64.6111 38.192 63.6351 38.336 62.5471 38.336C61.3631 38.336 60.4191 38.176 59.7151 37.856C59.0111 37.504 58.4991 37.04 58.1791 36.464C57.8911 35.888 57.7471 35.216 57.7471 34.448C56.9791 35.664 56.0511 36.624 54.9631 37.328C53.8751 38 52.5471 38.336 50.9791 38.336ZM54.3871 35.264C55.0271 35.264 55.6031 35.12 56.1151 34.832C56.6591 34.512 57.1711 34 57.6511 33.296V23.456C57.3631 23.936 56.9631 24.368 56.4511 24.752C55.9391 25.136 55.3951 25.536 54.8191 25.952C54.2431 26.336 53.6831 26.768 53.1391 27.248C52.6271 27.728 52.2111 28.32 51.8911 29.024C51.5711 29.728 51.4111 30.576 51.4111 31.568C51.4111 32.816 51.6831 33.744 52.2271 34.352C52.7711 34.96 53.4911 35.264 54.3871 35.264Z" fill="#000707"/>
<path d="M78.9428 5.31199V13.184H84.6068V14.144H78.9428V33.536C78.9428 34.496 79.1188 35.184 79.4708 35.6C79.8228 35.984 80.3508 36.176 81.0548 36.176C81.6308 36.176 82.2068 35.968 82.7828 35.552C83.3588 35.104 83.8708 34.352 84.3188 33.296L85.1348 33.728C84.6228 35.168 83.8388 36.352 82.7828 37.28C81.7588 38.208 80.3508 38.672 78.5588 38.672C77.5028 38.672 76.5748 38.528 75.7748 38.24C74.9748 37.984 74.3028 37.584 73.7588 37.04C73.0548 36.336 72.5908 35.472 72.3668 34.448C72.1428 33.392 72.0308 32.032 72.0308 30.368V14.144H67.9988V13.184H72.0308V6.84799C73.3748 6.84799 74.6068 6.73599 75.7268 6.51199C76.8788 6.25599 77.9508 5.85599 78.9428 5.31199Z" fill="#000707"/>
<path d="M95.8178 0.463989V16.976C96.6178 15.312 97.6898 14.16 99.0338 13.52C100.41 12.848 101.946 12.512 103.642 12.512C105.018 12.512 106.122 12.688 106.954 13.04C107.786 13.36 108.442 13.808 108.922 14.384C109.466 14.992 109.85 15.776 110.074 16.736C110.33 17.696 110.458 18.992 110.458 20.624V33.536C110.458 34.88 110.682 35.792 111.13 36.272C111.61 36.752 112.41 36.992 113.53 36.992V38C112.922 37.968 111.994 37.936 110.746 37.904C109.53 37.84 108.346 37.808 107.194 37.808C105.946 37.808 104.73 37.84 103.546 37.904C102.394 37.936 101.53 37.968 100.954 38V36.992C101.914 36.992 102.586 36.752 102.97 36.272C103.354 35.792 103.546 34.88 103.546 33.536V18.608C103.546 17.808 103.466 17.12 103.306 16.544C103.146 15.936 102.842 15.472 102.394 15.152C101.978 14.8 101.37 14.624 100.57 14.624C99.7058 14.624 98.9058 14.864 98.1698 15.344C97.4658 15.792 96.8898 16.432 96.4418 17.264C96.0258 18.096 95.8178 19.056 95.8178 20.144V33.536C95.8178 34.88 96.0098 35.792 96.3938 36.272C96.7778 36.752 97.4498 36.992 98.4098 36.992V38C97.8338 37.968 96.9858 37.936 95.8658 37.904C94.7458 37.84 93.6098 37.808 92.4578 37.808C91.2098 37.808 89.9458 37.84 88.6658 37.904C87.4178 37.936 86.4738 37.968 85.8338 38V36.992C86.9538 36.992 87.7378 36.752 88.1858 36.272C88.6658 35.792 88.9058 34.88 88.9058 33.536V6.22399C88.9058 4.78399 88.6818 3.72799 88.2338 3.05599C87.8178 2.35199 87.0178 1.99999 85.8338 1.99999V0.991991C86.8578 1.08799 87.8498 1.13599 88.8098 1.13599C90.1218 1.13599 91.3698 1.08799 92.5538 0.991991C93.7378 0.863991 94.8258 0.68799 95.8178 0.463989Z" fill="#000707"/>
<path d="M127.661 12.512C130.477 12.512 132.685 13.344 134.285 15.008C135.885 16.672 136.685 19.392 136.685 23.168H120.893L120.797 22.256H130.637C130.669 20.688 130.573 19.248 130.349 17.936C130.125 16.592 129.773 15.52 129.293 14.72C128.813 13.92 128.173 13.52 127.373 13.52C126.253 13.52 125.293 14.224 124.493 15.632C123.725 17.04 123.261 19.376 123.101 22.64L123.245 22.928C123.213 23.312 123.181 23.712 123.149 24.128C123.149 24.544 123.149 24.976 123.149 25.424C123.149 27.632 123.453 29.424 124.061 30.8C124.701 32.176 125.501 33.184 126.461 33.824C127.421 34.432 128.397 34.736 129.389 34.736C130.061 34.736 130.749 34.64 131.453 34.448C132.189 34.224 132.925 33.84 133.661 33.296C134.397 32.72 135.085 31.92 135.725 30.896L136.589 31.184C136.205 32.4 135.597 33.584 134.765 34.736C133.933 35.888 132.877 36.832 131.597 37.568C130.317 38.304 128.781 38.672 126.989 38.672C124.813 38.672 122.893 38.208 121.229 37.28C119.565 36.352 118.253 34.944 117.293 33.056C116.365 31.168 115.901 28.768 115.901 25.856C115.901 22.88 116.397 20.4 117.389 18.416C118.413 16.432 119.805 14.96 121.565 14C123.357 13.008 125.389 12.512 127.661 12.512Z" fill="#000707"/>
<path d="M163.368 12.656V32.768C163.368 34.208 163.592 35.28 164.04 35.984C164.488 36.656 165.288 36.992 166.44 36.992V38C165.448 37.904 164.456 37.856 163.464 37.856C162.12 37.856 160.872 37.904 159.72 38C158.568 38.096 157.48 38.272 156.456 38.528V34.208C155.688 35.808 154.616 36.96 153.24 37.664C151.896 38.336 150.392 38.672 148.728 38.672C147.384 38.672 146.296 38.496 145.464 38.144C144.632 37.792 143.976 37.344 143.496 36.8C142.952 36.192 142.568 35.392 142.344 34.4C142.12 33.408 142.008 32.128 142.008 30.56V18.416C142.008 16.976 141.784 15.92 141.336 15.248C140.92 14.544 140.12 14.192 138.936 14.192V13.184C139.96 13.28 140.952 13.328 141.912 13.328C143.256 13.328 144.504 13.28 145.656 13.184C146.84 13.056 147.928 12.88 148.92 12.656V32.528C148.92 33.328 148.984 34.032 149.112 34.64C149.272 35.248 149.56 35.728 149.976 36.08C150.392 36.4 151 36.56 151.8 36.56C152.664 36.56 153.432 36.32 154.104 35.84C154.808 35.36 155.368 34.704 155.784 33.872C156.232 33.008 156.456 32.048 156.456 30.992V18.416C156.456 16.976 156.232 15.92 155.784 15.248C155.368 14.544 154.568 14.192 153.384 14.192V13.184C154.408 13.28 155.4 13.328 156.36 13.328C157.704 13.328 158.952 13.28 160.104 13.184C161.288 13.056 162.376 12.88 163.368 12.656Z" fill="#000707"/>
<path d="M178.078 12.512C179.422 12.512 180.59 12.688 181.582 13.04C182.606 13.36 183.342 13.68 183.79 14C184.878 14.736 185.55 14.256 185.806 12.56H186.814C186.75 13.456 186.702 14.56 186.67 15.872C186.638 17.152 186.622 18.864 186.622 21.008H185.614C185.454 19.824 185.15 18.656 184.702 17.504C184.254 16.352 183.598 15.408 182.734 14.672C181.902 13.936 180.814 13.568 179.47 13.568C178.542 13.568 177.758 13.84 177.118 14.384C176.478 14.896 176.158 15.648 176.158 16.64C176.158 17.6 176.446 18.448 177.022 19.184C177.598 19.888 178.334 20.576 179.23 21.248C180.158 21.888 181.118 22.576 182.11 23.312C183.166 24.112 184.126 24.912 184.99 25.712C185.854 26.48 186.542 27.328 187.054 28.256C187.566 29.184 187.822 30.288 187.822 31.568C187.822 33.008 187.406 34.272 186.574 35.36C185.742 36.416 184.638 37.232 183.262 37.808C181.918 38.384 180.414 38.672 178.75 38.672C177.79 38.672 176.926 38.576 176.158 38.384C175.422 38.192 174.782 37.952 174.238 37.664C173.822 37.472 173.422 37.296 173.038 37.136C172.686 36.944 172.35 36.784 172.03 36.656C171.71 36.56 171.422 36.672 171.166 36.992C170.942 37.312 170.766 37.76 170.638 38.336H169.63C169.694 37.312 169.742 36.064 169.774 34.592C169.806 33.12 169.822 31.168 169.822 28.736H170.83C171.022 30.464 171.374 32 171.886 33.344C172.398 34.656 173.086 35.696 173.95 36.464C174.846 37.2 175.966 37.568 177.31 37.568C177.854 37.568 178.382 37.456 178.894 37.232C179.406 37.008 179.822 36.64 180.142 36.128C180.494 35.616 180.67 34.96 180.67 34.16C180.67 32.752 180.206 31.584 179.278 30.656C178.382 29.728 177.23 28.72 175.822 27.632C174.798 26.8 173.822 25.984 172.894 25.184C171.998 24.352 171.262 23.456 170.686 22.496C170.11 21.504 169.822 20.384 169.822 19.136C169.822 17.696 170.206 16.48 170.974 15.488C171.742 14.496 172.75 13.76 173.998 13.28C175.278 12.768 176.638 12.512 178.078 12.512Z" fill="#000707"/>
<path d="M41.9119 64.016V64.976C40.8879 65.008 40.1199 65.136 39.6079 65.36C39.0959 65.552 38.7439 65.936 38.5519 66.512C38.3919 67.056 38.3119 67.92 38.3119 69.104V92.912C38.3119 94.064 38.3919 94.928 38.5519 95.504C38.7439 96.08 39.0959 96.464 39.6079 96.656C40.1199 96.848 40.8879 96.976 41.9119 97.04V98C41.0159 97.936 39.8799 97.904 38.5039 97.904C37.1599 97.872 35.7839 97.856 34.3759 97.856C32.8399 97.856 31.3999 97.872 30.0559 97.904C28.7119 97.904 27.6239 97.936 26.7919 98V97.04C27.8799 96.976 28.6959 96.848 29.2399 96.656C29.8159 96.464 30.1999 96.08 30.3919 95.504C30.5839 94.928 30.6799 94.064 30.6799 92.912V66.944H31.0159L19.1119 98.048H18.3439L5.38393 67.136V90.128C5.38393 91.888 5.47993 93.248 5.67193 94.208C5.86393 95.136 6.27993 95.808 6.91993 96.224C7.59193 96.608 8.63193 96.88 10.0399 97.04V98C9.43193 97.936 8.63193 97.904 7.63993 97.904C6.64793 97.872 5.71993 97.856 4.85593 97.856C4.11993 97.856 3.36793 97.872 2.59993 97.904C1.83193 97.904 1.19193 97.936 0.679932 98V97.04C1.70393 96.88 2.47193 96.608 2.98393 96.224C3.49593 95.84 3.83193 95.216 3.99193 94.352C4.18393 93.456 4.27993 92.24 4.27993 90.704V69.104C4.27993 67.92 4.18393 67.056 3.99193 66.512C3.83193 65.936 3.47993 65.552 2.93593 65.36C2.42393 65.136 1.67193 65.008 0.679932 64.976V64.016C1.19193 64.048 1.83193 64.08 2.59993 64.112C3.36793 64.144 4.11993 64.16 4.85593 64.16C6.23193 64.16 7.57593 64.144 8.88793 64.112C10.2319 64.08 11.4159 64.048 12.4399 64.016L22.5199 88.352L21.3199 89.456L30.9679 64.16C31.5119 64.16 32.0719 64.16 32.6479 64.16C33.2239 64.16 33.7999 64.16 34.3759 64.16C35.7839 64.16 37.1599 64.144 38.5039 64.112C39.8799 64.08 41.0159 64.048 41.9119 64.016Z" fill="#000707"/>
<path d="M61.1483 63.92L72.8123 93.968C73.2603 95.12 73.7563 95.92 74.3003 96.368C74.8763 96.784 75.3883 97.008 75.8363 97.04V98C74.8763 97.936 73.7403 97.904 72.4283 97.904C71.1483 97.872 69.8523 97.856 68.5403 97.856C67.0683 97.856 65.6763 97.872 64.3643 97.904C63.0523 97.904 62.0123 97.936 61.2443 98V97.04C62.8763 96.976 63.9003 96.704 64.3163 96.224C64.7643 95.712 64.6683 94.64 64.0283 93.008L55.8683 70.688L56.7323 69.44L49.4363 88.448C48.7323 90.208 48.3003 91.648 48.1403 92.768C48.0123 93.888 48.0923 94.752 48.3803 95.36C48.7003 95.968 49.1963 96.4 49.8683 96.656C50.5723 96.88 51.4043 97.008 52.3643 97.04V98C51.3083 97.936 50.3003 97.904 49.3403 97.904C48.3803 97.872 47.4043 97.856 46.4123 97.856C45.7083 97.856 45.0363 97.872 44.3963 97.904C43.7883 97.904 43.2443 97.936 42.7643 98V97.04C43.4363 96.912 44.1243 96.48 44.8283 95.744C45.5323 95.008 46.2203 93.76 46.8923 92L57.8363 63.92C58.3483 63.952 58.8923 63.968 59.4683 63.968C60.0763 63.968 60.6363 63.952 61.1483 63.92ZM64.5083 84.176V85.136H50.2043L50.6843 84.176H64.5083Z" fill="#000707"/>
<path d="M76.1944 64.016C76.9944 64.048 78.0664 64.08 79.4104 64.112C80.7864 64.144 82.1464 64.16 83.4904 64.16C85.0264 64.16 86.5144 64.144 87.9544 64.112C89.3944 64.08 90.4184 64.064 91.0264 64.064C94.0024 64.064 96.4664 64.4 98.4184 65.072C100.402 65.712 101.874 66.656 102.834 67.904C103.826 69.152 104.322 70.656 104.322 72.416C104.322 73.504 104.098 74.608 103.65 75.728C103.202 76.816 102.434 77.84 101.346 78.8C100.29 79.728 98.8344 80.48 96.9784 81.056C95.1224 81.6 92.7864 81.872 89.9704 81.872H85.3624V80.912H89.4904C91.3784 80.912 92.8024 80.56 93.7624 79.856C94.7544 79.12 95.4264 78.16 95.7784 76.976C96.1624 75.76 96.3544 74.416 96.3544 72.944C96.3544 70.416 95.9064 68.464 95.0104 67.088C94.1144 65.68 92.5784 64.976 90.4024 64.976C89.1544 64.976 88.3384 65.248 87.9544 65.792C87.6024 66.336 87.4264 67.44 87.4264 69.104V92.912C87.4264 94.064 87.5064 94.928 87.6664 95.504C87.8584 96.08 88.2104 96.464 88.7224 96.656C89.2344 96.848 90.0024 96.976 91.0264 97.04V98C90.1624 97.936 89.0744 97.904 87.7624 97.904C86.4504 97.872 85.1224 97.856 83.7784 97.856C82.2424 97.856 80.7864 97.872 79.4104 97.904C78.0664 97.904 76.9944 97.936 76.1944 98V97.04C77.2184 96.976 77.9864 96.848 78.4984 96.656C79.0104 96.464 79.3464 96.08 79.5064 95.504C79.6984 94.928 79.7944 94.064 79.7944 92.912V69.104C79.7944 67.92 79.6984 67.056 79.5064 66.512C79.3464 65.936 78.9944 65.552 78.4504 65.36C77.9384 65.136 77.1864 65.008 76.1944 64.976V64.016ZM85.2664 81.056C86.6424 81.088 87.8264 81.152 88.8184 81.248C89.8424 81.344 90.7384 81.44 91.5064 81.536C92.2744 81.6 92.9624 81.648 93.5704 81.68C96.4824 81.936 98.6264 82.56 100.002 83.552C101.41 84.544 102.322 86.032 102.738 88.016L103.842 92.96C104.13 94.24 104.434 95.136 104.754 95.648C105.074 96.16 105.538 96.416 106.146 96.416C106.562 96.384 106.898 96.288 107.154 96.128C107.442 95.936 107.746 95.664 108.066 95.312L108.738 95.888C107.874 96.88 106.946 97.584 105.954 98C104.962 98.448 103.762 98.672 102.354 98.672C100.626 98.672 99.2024 98.304 98.0824 97.568C96.9624 96.832 96.2264 95.472 95.8744 93.488L95.0104 88.688C94.7864 87.344 94.5144 86.176 94.1944 85.184C93.8744 84.16 93.4264 83.36 92.8504 82.784C92.3064 82.176 91.5384 81.872 90.5464 81.872H85.3624L85.2664 81.056Z" fill="#000707"/>
<path d="M124.261 64.016V64.976C123.237 65.008 122.453 65.136 121.909 65.36C121.397 65.552 121.061 65.936 120.901 66.512C120.741 67.056 120.661 67.92 120.661 69.104V92.912C120.661 94.064 120.741 94.928 120.901 95.504C121.093 96.08 121.445 96.464 121.957 96.656C122.469 96.848 123.237 96.976 124.261 97.04V98C123.397 97.936 122.309 97.904 120.997 97.904C119.685 97.872 118.357 97.856 117.013 97.856C115.445 97.856 113.989 97.872 112.645 97.904C111.333 97.904 110.261 97.936 109.429 98V97.04C110.453 96.976 111.221 96.848 111.733 96.656C112.245 96.464 112.581 96.08 112.741 95.504C112.933 94.928 113.029 94.064 113.029 92.912V69.104C113.029 67.92 112.933 67.056 112.741 66.512C112.581 65.936 112.229 65.552 111.685 65.36C111.173 65.136 110.421 65.008 109.429 64.976V64.016C110.261 64.048 111.333 64.08 112.645 64.112C113.989 64.144 115.445 64.16 117.013 64.16C118.357 64.16 119.685 64.144 120.997 64.112C122.309 64.08 123.397 64.048 124.261 64.016Z" fill="#000707"/>
<path d="M159.108 64.016V64.976C158.084 65.104 157.316 65.376 156.804 65.792C156.292 66.176 155.94 66.8 155.748 67.664C155.588 68.528 155.508 69.744 155.508 71.312V98.096C155.124 98.064 154.724 98.048 154.308 98.048C153.924 98.048 153.508 98.064 153.06 98.096L132.228 71.696V90.128C132.228 91.888 132.324 93.248 132.516 94.208C132.708 95.136 133.124 95.808 133.764 96.224C134.436 96.608 135.476 96.88 136.884 97.04V98C136.276 97.936 135.476 97.904 134.484 97.904C133.492 97.872 132.564 97.856 131.7 97.856C130.964 97.856 130.212 97.872 129.444 97.904C128.676 97.904 128.036 97.936 127.524 98V97.04C128.548 96.88 129.316 96.608 129.828 96.224C130.34 95.84 130.676 95.216 130.836 94.352C131.028 93.456 131.124 92.24 131.124 90.704V69.104C131.124 67.92 131.028 67.056 130.836 66.512C130.676 65.936 130.324 65.552 129.78 65.36C129.268 65.136 128.516 65.008 127.524 64.976V64.016C128.036 64.048 128.676 64.08 129.444 64.112C130.212 64.144 130.964 64.16 131.7 64.16C132.468 64.16 133.204 64.144 133.908 64.112C134.612 64.08 135.252 64.048 135.828 64.016L154.404 86.912V71.888C154.404 70.128 154.308 68.784 154.116 67.856C153.924 66.896 153.492 66.208 152.82 65.792C152.18 65.376 151.156 65.104 149.748 64.976V64.016C150.356 64.048 151.156 64.08 152.148 64.112C153.14 64.144 154.068 64.16 154.932 64.16C155.7 64.16 156.452 64.144 157.188 64.112C157.956 64.08 158.596 64.048 159.108 64.016Z" fill="#000707"/>
<path d="M174.116 63.392C176.004 63.392 177.46 63.6 178.484 64.016C179.508 64.4 180.388 64.816 181.124 65.264C181.508 65.488 181.812 65.664 182.036 65.792C182.292 65.888 182.532 65.936 182.756 65.936C183.076 65.936 183.3 65.76 183.428 65.408C183.588 65.056 183.716 64.528 183.812 63.824H184.916C184.884 64.432 184.836 65.168 184.772 66.032C184.74 66.864 184.708 67.968 184.676 69.344C184.676 70.72 184.676 72.528 184.676 74.768H183.572C183.444 73.104 183.06 71.488 182.42 69.92C181.78 68.352 180.868 67.072 179.684 66.08C178.532 65.056 177.108 64.544 175.412 64.544C173.876 64.544 172.612 64.976 171.62 65.84C170.628 66.704 170.132 67.904 170.132 69.44C170.132 70.72 170.452 71.824 171.092 72.752C171.732 73.648 172.66 74.528 173.876 75.392C175.124 76.256 176.628 77.296 178.388 78.512C179.924 79.504 181.3 80.496 182.516 81.488C183.732 82.48 184.708 83.6 185.444 84.848C186.18 86.096 186.548 87.584 186.548 89.312C186.548 91.424 185.988 93.168 184.868 94.544C183.78 95.92 182.34 96.96 180.548 97.664C178.756 98.336 176.788 98.672 174.644 98.672C172.66 98.672 171.076 98.48 169.892 98.096C168.708 97.712 167.716 97.312 166.916 96.896C166.212 96.448 165.668 96.224 165.284 96.224C164.964 96.224 164.724 96.4 164.564 96.752C164.436 97.104 164.324 97.632 164.228 98.336H163.124C163.188 97.568 163.22 96.672 163.22 95.648C163.252 94.624 163.268 93.296 163.268 91.664C163.3 90 163.316 87.904 163.316 85.376H164.42C164.548 87.488 164.9 89.472 165.476 91.328C166.084 93.152 166.996 94.624 168.212 95.744C169.46 96.864 171.108 97.424 173.156 97.424C174.276 97.424 175.268 97.232 176.132 96.848C177.028 96.432 177.748 95.824 178.292 95.024C178.836 94.224 179.108 93.232 179.108 92.048C179.108 90.704 178.788 89.536 178.148 88.544C177.54 87.552 176.692 86.624 175.604 85.76C174.548 84.896 173.316 84.016 171.908 83.12C170.404 82.128 168.996 81.136 167.684 80.144C166.372 79.152 165.316 78.016 164.516 76.736C163.748 75.456 163.364 73.936 163.364 72.176C163.364 70.16 163.86 68.512 164.852 67.232C165.876 65.92 167.204 64.96 168.836 64.352C170.5 63.712 172.26 63.392 174.116 63.392Z" fill="#000707"/>
</svg>
